<svg xmlns="http://www.w3.org/2000/svg" viewBox="0 0 567.67 509.15"><defs><style>.cls-1{fill:#ccc;stroke:#ccc;stroke-miterlimit:10;}.cls-2{font-size:12px;}.cls-2,.cls-3{fill:#4d4d4d;font-family:Calibri, Calibri;}.cls-3{font-size:20px;}.cls-4{fill:#39b54a;}</style></defs><title>day-view-graph</title><g id="Layer_1" data-name="Layer 1"><line class="cls-1" x1="33.67" y1="46.15" x2="567.67" y2="46.15"/><text class="cls-2" transform="translate(0 46.32)">08:00</text><line class="cls-1" x1="33.67" y1="76.15" x2="567.67" y2="76.15"/><text class="cls-2" transform="translate(0 76.32)">09:00</text><line class="cls-1" x1="33.67" y1="106.15" x2="567.67" y2="106.15"/><text class="cls-2" transform="translate(0 106.32)">10:00</text><line class="cls-1" x1="33.67" y1="136.15" x2="567.67" y2="136.15"/><text class="cls-2" transform="translate(0 136.32)">11:00</text><line class="cls-1" x1="33.67" y1="166.15" x2="567.67" y2="166.15"/><text class="cls-2" transform="translate(0 166.32)">12:00</text><line class="cls-1" x1="33.67" y1="196.15" x2="567.67" y2="196.15"/><text class="cls-2" transform="translate(0 196.32)">13:00</text><line class="cls-1" x1="33.67" y1="226.15" x2="567.67" y2="226.15"/><text class="cls-2" transform="translate(0 226.32)">14:00</text><line class="cls-1" x1="33.67" y1="256.15" x2="567.67" y2="256.15"/><text class="cls-2" transform="translate(0 256.32)">15:00</text><line class="cls-1" x1="33.67" y1="286.15" x2="567.67" y2="286.15"/><text class="cls-2" transform="translate(0 286.32)">16:00</text><line class="cls-1" x1="33.67" y1="316.15" x2="567.67" y2="316.15"/><text class="cls-2" transform="translate(0 316.32)">17:00</text><line class="cls-1" x1="33.67" y1="346.15" x2="567.67" y2="346.15"/><text class="cls-2" transform="translate(0 346.32)">18:00</text><line class="cls-1" x1="33.67" y1="376.15" x2="567.67" y2="376.15"/><text class="cls-2" transform="translate(0 376.32)">19:00</text><line class="cls-1" x1="33.67" y1="406.15" x2="567.67" y2="406.15"/><text class="cls-2" transform="translate(0 406.32)">20:00</text><line class="cls-1" x1="33.67" y1="436.15" x2="567.67" y2="436.15"/><text class="cls-2" transform="translate(0 436.32)">21:00</text><line class="cls-1" x1="33.67" y1="466.15" x2="567.67" y2="466.15"/><text class="cls-2" transform="translate(0 466.32)">22:00</text><line class="cls-1" x1="33.67" y1="496.15" x2="567.67" y2="496.15"/><text class="cls-2" transform="translate(0 496.32)">23:00</text><line class="cls-1" x1="46.17" y1="509.15" x2="46.17" y2="34.15"/><text class="cls-3" transform="translate(128 16.32)">CANCHA 1</text><text class="cls-3" transform="translate(396 16.32)">CANCHA 2</text></g><g id="Layer_2" data-name="Layer 2"><rect class="cls-4" x="60.67" y="46.65" width="225.32" height="179" rx="12" ry="12"/><rect class="cls-4" x="60.67" y="285.65" width="225.32" height="90" rx="12" ry="12"/><rect class="cls-4" x="324.34" y="105.65" width="225.32" height="31" rx="12" ry="12"/><rect class="cls-4" x="324.34" y="226.65" width="225.32" height="179" rx="12" ry="12"/><rect class="cls-4" x="324.34" y="466.65" width="225.32" height="30" rx="12" ry="12"/></g></svg>